<?xml version="1.0" standalone="no"?><!DOCTYPE svg PUBLIC "-//W3C//DTD SVG 1.1//EN" "http://www.w3.org/Graphics/SVG/1.1/DTD/svg11.dtd"><svg t="1589423404900" class="icon" viewBox="0 0 1024 1024" version="1.1" xmlns="http://www.w3.org/2000/svg" p-id="2092" xmlns:xlink="http://www.w3.org/1999/xlink" width="200" height="200"><defs><style type="text/css"></style></defs><path d="M613.909529 511.742127l257.907954-257.93763c28.498054-28.498054 28.498054-74.737168 0-103.163591-28.428469-28.493961-74.662467-28.493961-103.163591 0l-257.903861 257.903861-257.941724-257.903861c-28.498054-28.493961-74.665537-28.493961-103.159498 0-28.502148 28.426423-28.502148 74.66656 0 103.163591l257.9407 257.93763L149.647787 769.651105c-28.502148 28.498054-28.502148 74.664513 0 103.165638 28.493961 28.492938 74.661444 28.492938 103.159498 0L510.749008 614.907765l257.903861 257.910001c28.502148 28.492938 74.735122 28.492938 103.163591 0 28.498054-28.502148 28.498054-74.668607 0-103.165638L613.909529 511.742127z" p-id="2093"></path></svg>