<?xml version="1.0" standalone="no"?><!DOCTYPE svg PUBLIC "-//W3C//DTD SVG 1.1//EN" "http://www.w3.org/Graphics/SVG/1.1/DTD/svg11.dtd"><svg t="1589854816012" class="icon" viewBox="0 0 1063 1024" version="1.1" xmlns="http://www.w3.org/2000/svg" p-id="23913" xmlns:xlink="http://www.w3.org/1999/xlink" width="132.875" height="128"><defs><style type="text/css"></style></defs><path d="M531.692308 1024c-282.781538 0-512-229.218462-512-512s229.218462-512 512-512 512 229.218462 512 512-229.218462 512-512 512z m0-975.163077C276.086154 49.230769 68.962462 256.393846 68.529231 512c0.433231 255.606154 207.556923 462.729846 463.163077 463.163077 255.606154-0.433231 462.729846-207.556923 463.163077-463.163077C994.461538 256.393846 787.298462 49.270154 531.692308 48.836923z" p-id="23914"></path><path d="M571.116308 512l208.896-207.556923c10.24-10.24 10.24-27.175385 0-39.148308l-1.693539-1.693538a26.978462 26.978462 0 0 0-37.730461 0L531.692308 472.930462l-208.896-207.556924a26.978462 26.978462 0 0 0-37.730462 0l-1.693538 1.732924c-10.24 10.24-10.24 27.293538 0 39.148307L492.268308 512l-208.896 207.556923c-10.24 10.24-10.24 27.175385 0 39.069539l1.693538 1.693538c10.515692 10.24 27.332923 10.24 37.730462 0l208.896-209.053538 208.896 207.36c10.515692 10.24 27.214769 10.24 37.730461 0l1.693539-1.732924c10.24-10.24 10.24-27.293538 0-39.148307L571.116308 512z" p-id="23915"></path></svg>