<?xml version="1.0" standalone="no"?><!DOCTYPE svg PUBLIC "-//W3C//DTD SVG 1.1//EN" "http://www.w3.org/Graphics/SVG/1.1/DTD/svg11.dtd"><svg t="1589939096334" class="icon" viewBox="0 0 1024 1024" version="1.1" xmlns="http://www.w3.org/2000/svg" p-id="8574" xmlns:xlink="http://www.w3.org/1999/xlink" width="200" height="200"><defs><style type="text/css"></style></defs><path d="M255.194 367.874c16.803 50.875 33.857 98.71 47.964 147.406 4.61 15.908 5.495 35.09 1.279 50.967-14.531 54.728-32.066 108.658-49.36 165.872 17.145 0 31.508-0.399 45.84 0.108 14.905 0.527 27.722 5.28 27.302 23.194-0.409 17.345-11.67 22.672-27.686 22.267-21.3-0.532-42.622-0.02-63.938-0.153-30.173-0.19-38.677-10.684-30.178-39.414 17.08-57.721 35.832-114.961 51.857-172.959 3.93-14.224 3.388-31.631-0.89-45.83-15.39-51.095-33.223-101.458-50.2-152.078-11.134-33.191-3.505-44.33 30.91-44.428 42.458-0.117 84.922-0.03 126.055-0.03 2.21-3.623 3.98-5.173 3.765-6.355-8.135-44.29 18.794-64.716 53.685-80.736 124.227-57.051 248.163-55.06 372.181 0.496 26.796 12.004 38.478 30.199 38.155 61.564-1.576 154.293-0.69 308.607-0.731 462.916-0.01 39.372-2.671 45.998-40.877 55.869-36.82 9.511-74.78 16.997-112.639 19.602-91.865 6.324-183.632 6.452-273.107-21.65-25.359-7.96-36.881-20.962-36.4-49.585 1.683-99.719 0.194-199.484 1.33-299.218 0.123-10.56 6.943-25.537 15.365-30.541 15.59-9.267 29.324 4.682 29.37 28.249 0.2 93.778 0.895 187.567-0.527 281.325-0.322 21.418 6.334 29.779 26.52 33.857 106.457 21.516 212.746 21.48 319.295 0.941 20.421-3.934 28.74-12.187 28.531-35.243-1.31-144.92-1.259-289.86 0.005-434.774 0.184-20.897-7.26-31.447-24.575-38.35-111.39-44.402-221.501-45.328-330.266 9.128-13.846 6.934-21.142 15.709-19.08 31.75 1.074 8.386-0.051 17.033 0.225 25.547 0.711 21.536-9.553 30.766-31.033 30.46-41.69-0.6-83.391-0.174-128.147-0.174z" p-id="8575"></path><path d="M598.062 281.084c17.054-0.03 34.553-2.333 50.978 0.875 9.154 1.786 16.522 12.741 24.698 19.561-7.506 7.604-14.603 21.23-22.595 21.772-35.643 2.43-71.628 2.476-107.266 0.097-7.742-0.517-14.572-14.582-21.828-22.41 7.435-6.622 14.132-17.556 22.452-18.968 17.402-2.958 35.658-0.896 53.561-0.927z" p-id="8576"></path></svg>