<?xml version="1.0" standalone="no"?><!DOCTYPE svg PUBLIC "-//W3C//DTD SVG 1.1//EN" "http://www.w3.org/Graphics/SVG/1.1/DTD/svg11.dtd"><svg t="1589868892193" class="icon" viewBox="0 0 1024 1024" version="1.1" xmlns="http://www.w3.org/2000/svg" p-id="2680" xmlns:xlink="http://www.w3.org/1999/xlink" width="200" height="200"><defs><style type="text/css"></style></defs><path d="M983.7824 312.7552C986.5472 319.2832 988.6208 326.144 991.1296 332.8L936.6528 332.8C866.7392 167.3216 702.9248 51.2 512 51.2 257.5104 51.2 51.2 257.5104 51.2 512L0 512C0 229.2224 229.2224 0 512 0 694.656 0 854.5024 95.9232 945.1264 239.8464L960.9216 150.3232C963.3792 136.3968 976.6656 127.104 990.592 129.5616 1004.4928 132.0192 1013.8112 145.28 1011.3536 159.2064L984.6784 310.4768C984.5248 311.3216 984.0128 311.9616 983.7824 312.7552ZM716.8 588.8 716.8 640 537.6 640 537.6 793.6 486.4 793.6 486.4 640 307.2 640 307.2 588.8 486.4 588.8 486.4 512 307.2 512 307.2 460.8 466.2272 460.8 349.7728 322.0224 388.992 289.1008 511.5904 435.2 512.4096 435.2 635.008 289.1008 674.2272 322.0224 557.7728 460.8 716.8 460.8 716.8 512 537.6 512 537.6 588.8 716.8 588.8ZM40.2176 711.2448C37.4528 704.7168 35.3792 697.856 32.8704 691.2L87.3472 691.2C157.2608 856.6784 321.0752 972.8 512 972.8 766.4896 972.8 972.8 766.4896 972.8 512L1024 512C1024 794.7776 794.7776 1024 512 1024 329.3696 1024 169.4976 928.0768 78.8736 784.1536L63.0784 873.6768C60.6208 887.6032 47.3344 896.896 33.408 894.4384 19.5072 891.9808 10.1888 878.72 12.6464 864.7936L39.3216 713.5232C39.4752 712.6784 39.9872 712.0384 40.2176 711.2448Z" p-id="2681"></path></svg>