<?xml version="1.0" standalone="no"?><!DOCTYPE svg PUBLIC "-//W3C//DTD SVG 1.1//EN" "http://www.w3.org/Graphics/SVG/1.1/DTD/svg11.dtd"><svg t="1589854656432" class="icon" viewBox="0 0 1024 1024" version="1.1" xmlns="http://www.w3.org/2000/svg" p-id="21917" xmlns:xlink="http://www.w3.org/1999/xlink" width="128" height="128"><defs><style type="text/css"></style></defs><path d="M691.84 416.64v-172.16c0-16-12.8-28.8-28.8-28.8h-307.2c-16 0-28.8 12.8-28.8 28.8v172.16c0 97.28 76.8 177.28 172.8 182.4v146.56h-114.56c-8.96 0-16 7.04-16 16s7.04 16 16 16h263.68c8.96 0 16-7.04 16-16s-7.04-16-16-16H531.2V597.76c90.88-10.88 160.64-88.32 160.64-181.12z m-32-168.32V384c-23.04 17.28-76.8 21.12-122.24-1.28-24.96-12.16-53.76-18.56-82.56-18.56-34.56 0-67.84 8.96-96 25.6v-142.08h300.8z m-300.8 168.32v-3.84c26.88-19.2 60.8-29.44 96-29.44 26.24 0 51.84 5.76 74.24 16.64 43.52 21.12 97.28 22.4 130.56 6.4v10.24c0 83.2-67.2 150.4-150.4 150.4S359.04 499.84 359.04 416.64z" fill="" p-id="21918"></path><path d="M518.4 523.52c0-5.12-4.48-9.6-9.6-9.6-6.4 0-12.8-0.64-19.2-1.92-31.36-6.4-58.24-29.44-69.12-59.52-1.92-5.12-7.04-7.68-12.16-5.76-5.12 1.92-7.68 7.04-5.76 12.16 13.44 36.48 45.44 64 83.2 71.68 7.68 1.28 15.36 2.56 23.04 2.56 5.12 0 9.6-3.84 9.6-9.6z" fill="" p-id="21919"></path></svg>