
<?xml version="1.0" standalone="no"?><!DOCTYPE svg PUBLIC "-//W3C//DTD SVG 1.1//EN" "http://www.w3.org/Graphics/SVG/1.1/DTD/svg11.dtd"><svg t="1589704352928" class="icon" viewBox="0 0 1258 1024" version="1.1" xmlns="http://www.w3.org/2000/svg" p-id="2165" xmlns:xlink="http://www.w3.org/1999/xlink" width="245.703125" height="200"><defs><style type="text/css"></style></defs><path d="M46.802801 852.263914h1161.388869a46.802801 46.802801 0 0 0 0-93.605602h-19.626981c0.566163-10.379654 0.880698-20.885121 0.880697-31.453496a566.162919 566.162919 0 0 0-394.930089-538.672564 175.699226 175.699226 0 0 0 1.572674-23.086866 165.445386 165.445386 0 1 0-329.758446 19.438261 566.162919 566.162919 0 0 0-407.008232 542.50989c0 10.379654 0.314535 20.885121 0.880697 31.453496H46.802801a46.802801 46.802801 0 0 0 0 93.605602z m583.839784-758.595404a71.839784 71.839784 0 0 1 71.776877 71.776876v2.327559a559.87222 559.87222 0 0 0-77.941762-5.410001 577.737806 577.737806 0 0 0-65.549085 3.774419v-0.691977a71.902691 71.902691 0 0 1 71.71397-71.776876z m-6.290699 162.362943a471.802433 471.802433 0 0 1 471.362084 471.362084c0 5.85035 0 19.815702-0.314535 31.453496H153.304337c0-11.449072-0.314535-25.162796-0.314535-31.453496A471.802433 471.802433 0 0 1 624.414793 256.031453zM1211.337019 930.33149H49.948151a46.865708 46.865708 0 0 0 0 93.66851h1161.388868a46.865708 46.865708 0 0 0 0-93.66851z" p-id="2166"></path><path d="M305.350534 646.054798a48.123848 48.123848 0 0 0 12.203957 1.572675 46.802801 46.802801 0 0 0 45.167219-34.661752 201.302371 201.302371 0 0 1 152.675268-143.742475 46.821673 46.821673 0 1 0-18.872098-91.718393 295.662858 295.662858 0 0 0-224.32633 211.178769 46.865708 46.865708 0 0 0 33.151984 57.371176z" p-id="2167"></path></svg>