<?xml version="1.0" standalone="no"?><!DOCTYPE svg PUBLIC "-//W3C//DTD SVG 1.1//EN" "http://www.w3.org/Graphics/SVG/1.1/DTD/svg11.dtd"><svg t="1589938515831" class="icon" viewBox="0 0 1024 1024" version="1.1" xmlns="http://www.w3.org/2000/svg" p-id="5971" xmlns:xlink="http://www.w3.org/1999/xlink" width="200" height="200"><defs><style type="text/css"></style></defs><path d="M306 924.6c-12.4 0-23.8-1.8-32.2-5.1-101.2-40.3-159-124.8-176.6-258.4-16.4-123.8 20.4-199 119.4-244 50.4-22.9 128-12.3 155.2 12.1l23.5 17.4 23.5-17.4c27.2-24.4 104.8-35 155.2-12.1 98.9 45 135.7 120.2 119.4 244-17.7 133.6-75.5 218.1-176.7 258.4-20 8-59 7.1-85.3-6.7-3.9-2.1-7.6-4.9-11.1-8.6l-16.2-16.8c-4.6-4.8-13.2-4.8-17.8 0l-20.6 21.5-1.8 1.1c-16 10-38.2 14.6-57.9 14.6z m-24.2-485.4c-17.7 0-35.9 2.7-50.9 9.5C147 486.8 117.3 549 131.5 656.6c16.1 121.7 65.4 195 155.1 230.7 11.3 4.5 40.2 3.9 57.2-5.6l17.5-18.3c8.8-9.2 21.2-14.5 33.9-14.5s25.1 5.3 33.9 14.5l16.2 16.9c1.2 1.3 2 1.8 2.3 1.9 17.2 9.1 45.6 9.4 56.2 5.1 89.7-35.7 139-109 155.1-230.7 14.2-107.6-15.5-169.8-99.3-207.9-40.3-18.3-103.7-6.9-117.9 6.5l-1.6 1.3-38.9 28.8h-11.4l-5.1-3.4-35.9-26.7c-8.9-8.4-37.2-16-67-16z" p-id="5972"></path><path d="M395 485.3c-0.8 0-1.6-0.1-2.4-0.2-9.5-1.3-16.1-10.1-14.8-19.5 4.8-35.1-0.2-61.9-15-79.9-18.4-22.3-46.8-24.2-47.1-24.2-9.5-0.5-16.9-8.7-16.4-18.2s8.5-16.8 18-16.5c1.8 0.1 43.5 2.3 71.8 36.3 21.5 25.8 29.2 61.9 23 107.2-1.2 8.7-8.6 15-17.1 15zM704.8 885.6c-23.9 0-41.3-5.4-54-9.4-3.1-1-5.8-1.8-8.3-2.4-9.3-2.3-14.9-11.7-12.6-21 2.3-9.3 11.7-14.9 21-12.6 3 0.8 6.4 1.8 10.2 3 26 8.2 69.7 21.8 159.3-32 84.2-50.5 84.1-151.9 84-206.3 0-9.7 0-18.1 0.5-24.6 2.4-30.8-87.8-220.2-136-285.5-26.4-35.9-48.4-32.3-78.8-27.5-10.9 1.8-22.2 3.6-34.2 3.6-25.3 0-66 79.7-69.4 98.9 0.6 7.8-4.1 15.2-11.8 17.8-9.1 3-18.9-1.9-21.9-11-6-17.9 23.8-73.5 40.7-97 20.8-28.8 41.8-43.4 62.4-43.4 9.3 0 18.7-1.5 28.7-3.1 32.6-5.2 73.2-11.8 112.2 41.1 42.5 57.7 146.3 261.3 142.6 308.7-0.4 5.2-0.4 13-0.4 21.9 0.1 57 0.2 175.5-100.8 236.1-58.7 35.1-101.8 44.7-133.4 44.7z m-119-520.1z" p-id="5973"></path><path d="M683.8 270.7c-2.5 0-5-0.5-7.4-1.7-8.6-4.1-12.3-14.3-8.3-23 1-2.2 20.3-47.6-35.1-90.4-7.6-5.9-9-16.7-3.1-24.3 5.9-7.6 16.7-9 24.3-3.1 62.6 48.4 57 107.9 45.3 132.6-3 6.3-9.2 9.9-15.7 9.9zM395.7 798.7c-9.6 0-17.3-7.8-17.3-17.3V569.6c0-9.6 7.8-17.3 17.3-17.3 9.6 0 17.3 7.8 17.3 17.3v211.7c0.1 9.6-7.7 17.4-17.3 17.4z" p-id="5974"></path><path d="M475.5 598.5a20.8 30.1 0 1 0 41.6 0 20.8 30.1 0 1 0-41.6 0Z" p-id="5975"></path><path d="M290.5 753.4a20.8 30.1 0 1 0 41.6 0 20.8 30.1 0 1 0-41.6 0Z" p-id="5976"></path><path d="M265.1 600.8a20.8 30.1 0 1 0 41.6 0 20.8 30.1 0 1 0-41.6 0Z" p-id="5977"></path><path d="M450.1 748.8a20.8 30.1 0 1 0 41.6 0 20.8 30.1 0 1 0-41.6 0Z" p-id="5978"></path></svg>