<?xml version="1.0" standalone="no"?><!DOCTYPE svg PUBLIC "-//W3C//DTD SVG 1.1//EN" "http://www.w3.org/Graphics/SVG/1.1/DTD/svg11.dtd"><svg t="1589938653617" class="icon" viewBox="0 0 1024 1024" version="1.1" xmlns="http://www.w3.org/2000/svg" p-id="3290" xmlns:xlink="http://www.w3.org/1999/xlink" width="200" height="200"><defs><style type="text/css"></style></defs><path d="M106.462894 619.801262A362.046705 362.046705 0 0 1 7.738398 288.984605a76.283232 76.283232 0 0 1 128.845281-38.226944l91.044976 91.044976a80.720288 80.720288 0 0 0 113.91288 0 80.720288 80.720288 0 0 0 0-113.91288L250.496559 136.844781A76.709872 76.709872 0 0 1 231.212431 60.646876 76.112576 76.112576 0 0 1 288.467519 7.914172a361.534737 361.534737 0 0 1 331.243297 98.383184 362.644001 362.644001 0 0 1 87.375873 372.627378l269.636481 269.721809a161.696561 161.696561 0 0 1 0 228.252401 161.525905 161.525905 0 0 1-227.996417 0L479.090272 707.177135a362.046705 362.046705 0 0 1-372.627378-87.290545zM85.30155 313.217757a281.838385 281.838385 0 0 0 78.245777 249.584401 282.009041 282.009041 0 0 0 291.992417 67.238464 76.880528 76.880528 0 0 1 78.843072 18.260193l271.428369 271.428369a80.720288 80.720288 0 0 0 113.912881 0 80.720288 80.720288 0 0 0 0-113.912881l-271.343041-271.428369a76.7952 76.7952 0 0 1-18.260193-79.013728 282.776993 282.776993 0 0 0-67.067808-292.077745A282.094369 282.094369 0 0 0 313.297967 85.136012l85.498657 85.498657a161.525905 161.525905 0 0 1 0 227.996417 161.525905 161.525905 0 0 1-228.081745 0L85.386878 313.217757z" p-id="3291"></path></svg>