<?xml version="1.0" standalone="no"?><!DOCTYPE svg PUBLIC "-//W3C//DTD SVG 1.1//EN" "http://www.w3.org/Graphics/SVG/1.1/DTD/svg11.dtd"><svg t="1589853399468" class="icon" viewBox="0 0 1024 1024" version="1.1" xmlns="http://www.w3.org/2000/svg" p-id="10591" xmlns:xlink="http://www.w3.org/1999/xlink" width="200" height="200"><defs><style type="text/css"></style></defs><path d="M679.722667 168.533333H344.32a117.333333 117.333333 0 0 0-116.48 102.997334l-55.765333 452.266666a117.333333 117.333333 0 0 0 116.48 131.669334h446.976a117.333333 117.333333 0 0 0 116.48-131.669334l-55.765334-452.266666a117.333333 117.333333 0 0 0-116.48-102.997334zM344.32 232.533333h335.445333c26.965333 0 49.664 20.053333 52.949334 46.805334l55.765333 452.266666a53.333333 53.333333 0 0 1-52.906667 59.861334H288.469333a53.333333 53.333333 0 0 1-52.906666-59.861334l55.722666-452.266666a53.333333 53.333333 0 0 1 52.906667-46.805334z" p-id="10592"></path><path d="M636.330667 343.466667a32 32 0 0 1 31.701333 27.648l0.298667 4.352v46.890666c0 85.930667-68.778667 155.776-153.898667 155.776-82.346667 0-149.461333-65.408-153.685333-147.498666l-0.213334-8.277334V375.466667a32 32 0 0 1 63.701334-4.352l0.298666 4.352v46.890666c0 50.773333 40.362667 91.776 89.898667 91.776 47.36 0 86.4-37.504 89.685333-85.205333l0.213334-6.570667V375.466667a32 32 0 0 1 32-32z" p-id="10593"></path></svg>