<?xml version="1.0" standalone="no"?><!DOCTYPE svg PUBLIC "-//W3C//DTD SVG 1.1//EN" "http://www.w3.org/Graphics/SVG/1.1/DTD/svg11.dtd"><svg t="1589707342104" class="icon" viewBox="0 0 1124 1024" version="1.1" xmlns="http://www.w3.org/2000/svg" p-id="8292" xmlns:xlink="http://www.w3.org/1999/xlink" width="219.53125" height="200"><defs><style type="text/css"></style></defs><path d="M545.52276355 833.64634268c-24.60324638 0-44.59275 19.99051787-44.59275089 44.58970985 0 24.60223213 19.98950362 44.59275 44.59275089 44.59275 24.59817862 0 44.5886956-19.99051787 44.5886956-44.59275 0-24.599192-19.99051787-44.58970898-44.5886956-44.58970985z m269.0808996 0c-24.60223213 0-44.59275 19.99051787-44.59275 44.58970985 0 24.60223213 19.99051787 44.59275 44.59275 44.59275 24.60324638 0 44.58970898-19.99051787 44.58970987-44.59275 0-24.599192-19.98646347-44.58970898-44.58970987-44.58970985z m135.31075928-93.79417413H437.88736198c-30.75152344 0-58.42688115-23.06668359-67.65537919-53.81719365L250.29799948 161.70933271c-4.61171513-27.67941211-26.13879492-49.20547852-53.81313925-53.8182079L101.15006891 94.05395352c-12.30162276 0-26.13879492 9.22545703-26.13879492 18.44990068 0 13.84122656 9.22545703 27.67941211 18.44990069 27.67941123l98.40690264 13.83717217c9.22849805 0 18.45395508 9.22545703 18.45395508 18.44990068l121.46953271 524.32969659c9.22849805 53.81313925 53.81719365 90.71800839 107.63540068 90.71800839H949.91442243c13.83818555 0 23.0626292-9.22545703 23.0626292-23.0626292 0-13.84223994-10.76100645-24.60324638-23.0626292-24.6032455z m21.52707979-465.89876103c-21.52707979-27.67434433-53.81820703-41.51252988-89.18245899-41.51252989H367.15885808c-13.84122656 0-23.06668359 9.22545703-23.0666836 23.0626292 0 13.83717217 9.22545703 23.0626292 23.0666836 23.06262921H882.25904323c23.0626292 0 39.97698047 4.61272852 53.81415264 23.06668359 13.84122656 18.44990068 18.45395508 41.51658427 13.84122656 58.42992217l-49.20547852 187.58834912c-9.22444365 32.28808623-35.36323857 53.81415263-67.65538007 53.81415263H456.34131706c-13.84223994 0-23.06668359 9.22545703-23.06668359 23.06668359 0 13.83717217 9.22444365 23.0626292 23.06668359 23.06262921h376.71224678c53.81820703 0 98.40690263-36.90385576 112.24914345-90.7180084l49.20142412-187.58834912c9.22444365-32.29214063 0-67.6553792-23.06262919-95.33479131z m0 0" fill="#666666" p-id="8293"></path></svg>