<?xml version="1.0" standalone="no"?><!DOCTYPE svg PUBLIC "-//W3C//DTD SVG 1.1//EN" "http://www.w3.org/Graphics/SVG/1.1/DTD/svg11.dtd"><svg t="1590457971631" class="icon" viewBox="0 0 1024 1024" version="1.1" xmlns="http://www.w3.org/2000/svg" p-id="4227" xmlns:xlink="http://www.w3.org/1999/xlink" width="128" height="128"><defs><style type="text/css"></style></defs><path d="M435.5 588.3l0.1 0.1v203.1c0 28.7-22.5 51.2-51.2 51.2h-152c-28.7 0-51.2-22.5-51.2-51.2v-152c0-28.7 22.5-51.2 51.2-51.2h203.1z m0-50.9H232.4c-57 0-102.1 45.7-102.1 102.1v152c0 57 45.7 102.1 102.1 102.1h152c57 0 102.1-45.7 102.1-102.1v-203c0.1-28.8-22.8-51.1-51-51.1m356.1 50.9c28.7 0 51.2 22.5 51.2 51.2v152c0 28.7-22.5 51.2-51.2 51.2h-152c-28.7 0-51.2-22.5-51.2-51.2l0.1-203.2h203.1z m0-50.9H588.5c-28.8 0-51 22.8-51 51v203.1c0 57 45.7 102.1 102.1 102.1h152c57 0 102.1-45.7 102.1-102.1v-152c-0.1-56.9-45.8-102.1-102.1-102.1M384.5 181.3c28.7 0 51.2 22.5 51.2 51.2l-0.1 203.2H232.4c-28.7 0-51.2-22.5-51.2-51.2v-152c0-28.7 22.5-51.2 51.2-51.2h152.1z m0-50.9h-152c-57 0-102.1 45.7-102.1 102.1v152c0 57 45.7 102.1 102.1 102.1h203.1c28.8 0 51-22.8 51-51V232.4c0-56.9-45.7-102-102.1-102m407.1 50.9c28.7 0 51.2 22.5 51.2 51.2v152c0 28.7-22.5 51.2-51.2 51.2l-203.2-0.1V232.4c0-28.7 22.5-51.2 51.2-51.2h152v0.1z m0-50.9h-152c-57 0-102.1 45.7-102.1 102.1v203.1c0 28.8 22.8 51 51 51h203.1c57 0 102.1-45.7 102.1-102.1v-152c-0.1-57-45.8-102.1-102.1-102.1" p-id="4228"></path></svg>