<?xml version="1.0" standalone="no"?><!DOCTYPE svg PUBLIC "-//W3C//DTD SVG 1.1//EN" "http://www.w3.org/Graphics/SVG/1.1/DTD/svg11.dtd"><svg t="1589869537847" class="icon" viewBox="0 0 1024 1024" version="1.1" xmlns="http://www.w3.org/2000/svg" p-id="4806" xmlns:xlink="http://www.w3.org/1999/xlink" width="200" height="200"><defs><style type="text/css"></style></defs><path d="M505.945 947.468c-59.602 0-117.428-11.677-171.873-34.703-52.581-22.239-99.799-54.075-140.345-94.62-40.547-40.547-72.382-87.765-94.621-140.346-23.028-54.443-34.703-112.269-34.703-171.873s11.677-117.428 34.703-171.872c22.239-52.581 54.075-99.799 94.621-140.346 40.547-40.547 87.765-72.382 140.345-94.62 54.444-23.028 112.27-34.703 171.873-34.703 59.603 0 117.428 11.677 171.873 34.703 52.581 22.239 99.799 54.075 140.346 94.62 40.546 40.547 72.382 87.765 94.62 140.346 23.028 54.443 34.703 112.269 34.703 171.873s-11.677 117.428-34.703 171.873c-22.239 52.581-54.075 99.799-94.62 140.346-40.547 40.546-87.765 72.382-140.346 94.62-54.444 23.027-112.27 34.703-171.874 34.703zM505.945 91.366c-228.59 0-414.561 185.971-414.561 414.561s185.97 414.561 414.561 414.561 414.561-185.97 414.561-414.561-185.97-414.561-414.561-414.561z" p-id="4807"></path><path d="M164.1 777.984c-3.958 0-7.879-1.733-10.543-5.064-4.655-5.818-3.711-14.308 2.107-18.962l315.976-252.78v-421.566c0-7.45 6.040-13.492 13.492-13.492s13.492 6.040 13.492 13.492v428.051c0 4.099-1.863 7.974-5.063 10.535l-321.038 256.83c-2.487 1.99-5.464 2.958-8.419 2.958z" p-id="4808"></path><path d="M482.803 520.579c-3.285 0-6.578-1.192-9.176-3.605l-299.638-278.233c-5.46-5.070-5.776-13.606-0.706-19.065s13.606-5.775 19.065-0.707l299.638 278.234c5.46 5.070 5.776 13.606 0.706 19.065-2.658 2.862-6.268 4.312-9.889 4.312z" p-id="4809"></path></svg>