<?xml version="1.0" standalone="no"?><!DOCTYPE svg PUBLIC "-//W3C//DTD SVG 1.1//EN" "http://www.w3.org/Graphics/SVG/1.1/DTD/svg11.dtd"><svg t="1589292556874" class="icon" viewBox="0 0 1024 1024" version="1.1" xmlns="http://www.w3.org/2000/svg" p-id="13125" xmlns:xlink="http://www.w3.org/1999/xlink" width="200" height="200"><defs><style type="text/css"></style></defs><path d="M960 64l0 832-128 0L832 64 960 64M576 320l0 576L448 896 448 320 576 320M192 576l0 320L64 896 64 576 192 576M1024 0l-256 0 0 960 256 0L1024 0 1024 0zM640 256 384 256l0 704 256 0L640 256 640 256zM256 512 0 512l0 448 256 0L256 512 256 512z" p-id="13126" fill="#3cd220"></path></svg>