<?xml version="1.0" standalone="no"?><!DOCTYPE svg PUBLIC "-//W3C//DTD SVG 1.1//EN" "http://www.w3.org/Graphics/SVG/1.1/DTD/svg11.dtd"><svg t="1589854425785" class="icon" viewBox="0 0 1024 1024" version="1.1" xmlns="http://www.w3.org/2000/svg" p-id="19074" xmlns:xlink="http://www.w3.org/1999/xlink" width="128" height="128"><defs><style type="text/css"></style></defs><path d="M827.704288 377.645013c0-36.050054-27.417443-65.494667-62.434981-69.432349-15.974833-56.444547-48.877197-105.254206-92.50995-141.173277l48.260144-80.397075 62.903655-37.238113c11.293207-6.683213 15.037485-21.256116 8.354272-32.550347-6.683213-11.293207-21.272489-15.022135-32.550347-8.354272l-68.085678 40.300868c-3.403516 2.010797-6.250354 4.842285-8.276501 8.215102l-49.765427 82.899058C591.743182 115.809609 543.541367 102.06763 492.90613 102.06763c-126.711913 0-238.273778 85.695754-272.356015 206.145034-35.017538 3.933589-62.427818 33.378202-62.427818 69.432349 0 31.426757 20.883633 57.778938 49.40113 66.713424l87.172385 542.42494c1.856277 11.510148 11.803837 19.98824 23.468504 19.98824l349.495906 0c11.664667 0 21.612227-8.478092 23.468504-19.98824l87.157036-542.42494C806.809399 435.423951 827.704288 409.071769 827.704288 377.645013zM492.90613 149.59304c48.40136 0 94.181009 15.009855 132.288932 40.939411 1.189082 1.106194 2.498914 2.112104 3.944845 2.981914 0.054235 0.032746 0.11461 0.038886 0.167822 0.071631 39.061644 27.823696 69.50398 67.287499 85.854367 113.838721L270.65528 307.424718C303.286468 214.484979 392.32741 149.59304 492.90613 149.59304zM228.343615 354.950128l529.124006 0c12.516058 0 22.711258 10.17985 22.711258 22.694885 0 12.516058-10.1952 22.694885-22.711258 22.694885L228.343615 400.339898c-12.516058 0-22.694885-10.17985-22.694885-22.694885C205.64873 365.128955 215.827557 354.950128 228.343615 354.950128zM647.410016 959.246207 338.41657 959.246207l-82.179674-511.379876 473.337445 0L647.410016 959.246207z" p-id="19075"></path></svg>