<?xml version="1.0" standalone="no"?><!DOCTYPE svg PUBLIC "-//W3C//DTD SVG 1.1//EN" "http://www.w3.org/Graphics/SVG/1.1/DTD/svg11.dtd"><svg t="1589704936315" class="icon" viewBox="0 0 1131 1024" version="1.1" xmlns="http://www.w3.org/2000/svg" p-id="4192" xmlns:xlink="http://www.w3.org/1999/xlink" width="220.8984375" height="200"><defs><style type="text/css"></style></defs><path d="M231.747368 1021.305263c-43.115789 0-78.147368-2.694737-80.842105-2.694737 0 0-18.863158 0-32.336842-13.473684-10.778947-10.778947-16.168421-24.252632-16.168421-43.115789V943.157895c0-10.778947-5.389474-18.863158-16.168421-24.252632-26.947368-10.778947-59.284211-43.115789-59.284211-134.736842V754.526316c0-134.736842 0-253.305263 70.063158-272.168421 43.115789-13.473684 48.505263-80.842105 51.2-80.842106 2.694737-10.778947 48.505263-250.610526 196.71579-304.505263h441.936842c8.084211 2.694737 172.463158 83.536842 202.105263 309.894737 2.694737 18.863158 16.168421 70.063158 48.505263 78.147369 78.147368 16.168421 72.757895 231.747368 70.063158 274.863157 0 13.473684-5.389474 132.042105-64.673684 158.989474-8.084211 2.694737-10.778947 10.778947-10.778947 18.863158v24.252632c0 18.863158-10.778947 53.894737-61.978948 56.589473-40.421053 2.694737-126.652632 0-129.347368 0-16.168421 0-43.115789-13.473684-45.810527-48.505263v-5.389474c0-13.473684-10.778947-24.252632-24.252631-24.252631H363.789474c-16.168421 0-26.947368 10.778947-26.947369 26.947368s-10.778947 45.810526-48.505263 48.505263c-18.863158 2.694737-37.726316 5.389474-56.589474 5.389474z m-80.842105-29.642105c2.694737 0 75.452632 5.389474 132.042105 0 21.557895-2.694737 24.252632-18.863158 24.252632-21.557895 0-29.642105 24.252632-53.894737 53.894737-53.894737h406.905263c26.947368 0 51.2 21.557895 51.2 51.2v2.694737c0 18.863158 18.863158 21.557895 21.557895 21.557895 0 0 88.926316 2.694737 126.652631 0 35.031579-2.694737 35.031579-24.252632 35.031579-29.642105v-24.252632c0-18.863158 10.778947-35.031579 26.947369-43.115789 35.031579-18.863158 48.505263-105.094737 48.505263-137.431579 5.389474-97.010526-8.084211-239.831579-48.505263-247.91579-56.589474-10.778947-67.368421-97.010526-70.063158-99.705263-24.252632-196.715789-161.684211-277.557895-183.242105-288.336842H350.315789C218.273684 172.463158 172.463158 401.515789 172.463158 404.210526c0 2.694737-8.084211 86.231579-70.063158 102.4C53.894737 522.778947 53.894737 633.263158 53.894737 754.526316v29.642105c0 61.978947 16.168421 99.705263 43.115789 110.484211 21.557895 8.084211 35.031579 26.947368 35.031579 48.505263v21.557894c0 10.778947 2.694737 18.863158 8.084211 21.557895 2.694737 5.389474 10.778947 5.389474 10.778947 5.389474z" fill="" p-id="4193"></path><path d="M821.894737 479.663158H296.421053v-13.473684c0-18.863158 13.473684-185.936842 86.231579-207.494737h350.315789c72.757895 21.557895 86.231579 188.631579 86.231579 207.494737l2.694737 13.473684z m-498.526316-26.947369h468.884211c-5.389474-64.673684-26.947368-153.6-64.673685-169.768421H390.736842c-37.726316 13.473684-59.284211 105.094737-67.368421 169.768421zM272.168421 784.168421c-43.115789 0-78.147368-35.031579-78.147368-78.147368s35.031579-78.147368 78.147368-78.147369 78.147368 35.031579 78.147368 78.147369-35.031579 78.147368-78.147368 78.147368z m0-129.347368c-26.947368 0-51.2 24.252632-51.2 51.2 0 26.947368 24.252632 51.2 51.2 51.2s51.2-24.252632 51.2-51.2c0-29.642105-24.252632-51.2-51.2-51.2zM859.621053 784.168421c-43.115789 0-78.147368-35.031579-78.147369-78.147368s35.031579-78.147368 78.147369-78.147369 78.147368 35.031579 78.147368 78.147369-35.031579 78.147368-78.147368 78.147368z m0-129.347368c-26.947368 0-51.2 24.252632-51.2 51.2 0 26.947368 24.252632 51.2 51.2 51.2 26.947368 0 51.2-24.252632 51.2-51.2 0-29.642105-21.557895-51.2-51.2-51.2z" fill="" p-id="4194"></path></svg>